<svg width="34" height="34" viewBox="0 0 34 34" fill="none" xmlns="http://www.w3.org/2000/svg">
<path d="M17 1.0625C9.67619 1.0625 3.71875 7.021 3.71875 14.3438C3.71875 21.6665 9.67672 27.625 17 27.625C24.3238 27.625 30.2812 21.6665 30.2812 14.3438C30.2812 7.021 24.3233 1.0625 17 1.0625ZM17 24.9693C11.1408 24.9693 6.37447 20.2029 6.37447 14.3438C6.37447 8.48566 11.1403 3.71928 17 3.71928C22.8586 3.71928 27.6245 8.48566 27.6245 14.3438C27.6239 20.2029 22.8581 24.9693 17 24.9693Z" fill="white"/>
<path d="M13.501 10.2728C13.9931 9.7512 14.5811 9.32947 15.2329 9.03072C15.8983 8.72506 16.6226 8.5691 17.3547 8.57384C18.2839 8.57384 19.1365 8.79537 19.9138 9.23844C20.6799 9.67172 21.3327 10.2801 21.8188 11.0139L23.7122 9.59809C22.9929 8.61604 22.0583 7.81171 20.98 7.24678C19.8845 6.66559 18.6754 6.375 17.3542 6.375C16.2657 6.375 15.2425 6.58537 14.2852 7.00719C13.3494 7.41186 12.4996 7.99158 11.7814 8.71516C11.0642 9.44306 10.4917 10.3004 10.0941 11.2418C9.68029 12.2055 9.47363 13.2409 9.47363 14.3443C9.47363 15.4466 9.68029 16.481 10.0941 17.4473C10.4912 18.3883 11.0639 19.245 11.7814 19.9718C12.4996 20.6959 13.3494 21.2763 14.2852 21.6819C15.243 22.1016 16.2662 22.3125 17.3542 22.3125C18.6754 22.3125 19.884 22.0219 20.98 21.4402C22.0589 20.8761 22.9936 20.0716 23.7122 19.0889L21.8188 17.6752C21.3319 18.4079 20.6793 19.0156 19.9138 19.4491C19.1365 19.8916 18.2839 20.1131 17.3547 20.1131C16.6225 20.1181 15.8982 19.9622 15.2329 19.6562C14.581 19.3577 13.9929 18.9359 13.501 18.4142C13.008 17.8936 12.616 17.2821 12.3254 16.5862C12.0348 15.8902 11.8898 15.1417 11.8898 14.3443C11.8898 13.5453 12.0348 12.7978 12.3254 12.1013C12.616 11.4049 13.008 10.7955 13.501 10.2728Z" fill="white"/>
</svg>
